PathFileType	4	(X/Y/Z)	./resultDataOpenSim/trcMotMarkerGrf/sub06/qtm-12-02.trc
DataRate	CameraRate	NumFrames	NumMarkers	Units	OrigDataRate	OrigDataStartFrame	OrigNumFrames
250.000000	250.000000	15	24	m	250.000000	422	482
Frame#	Time	L.Toe.Tip			R.Toe.Tip			L.Ankle.Lat			R.Ankle.Lat			L.Ankle.Med			R.Ankle.Med			L.Heel			R.Heel			L.Knee.Lat			R.Knee.Lat			L.Knee.Med			R.Knee.Med			L.Thigh.Upper			R.Thigh.Upper			L.ASIS			R.ASIS			V.Sacral			L.Acromium			R.Acromium			C7			L.Elbow			R.Elbow			L.Wrist.Lat			R.Wrist.Lat
		X1	Y1	Z1	X2	Y2	Z2	X3	Y3	Z3	X4	Y4	Z4	X5	Y5	Z5	X6	Y6	Z6	X7	Y7	Z7	X8	Y8	Z8	X9	Y9	Z9	X10	Y10	Z10	X11	Y11	Z11	X12	Y12	Z12	X13	Y13	Z13	X14	Y14	Z14	X15	Y15	Z15	X16	Y16	Z16	X17	Y17	Z17	X18	Y18	Z18	X19	Y19	Z19	X20	Y20	Z20	X21	Y21	Z21	X22	Y22	Z22	X23	Y23	Z23	X24	Y24	Z24

422	1.684	1.7955608	0.033972303	-0.11107091	1.3055857	0.083277069	0.10042503	1.6729756	0.066628546	-0.14226386	1.2816261	0.22483471	0.1046028	1.6713554	0.079927804	-0.054209254	1.3236014	0.20418377	0.029070898	1.5931826	0.040565973	-0.10379716	1.2494322	0.25332675	0.038216345	1.758584	0.43227568	-0.14524049	1.6122995	0.40371435	0.15388222	1.7178285	0.43002182	-0.02967504	1.6223535	0.37771115	0.020091498	1.6256108	0.80935078	-0.20674603	1.5338996	0.75902706	0.12461599	1.6800321	0.85136057	-0.14689093	1.6418669	0.82478246	0.098064315	1.4680493	0.90240679	-0.044169241	1.5849525	1.3143186	-0.22541495	1.5698899	1.3102597	0.13963611	1.4902371	1.3491119	-0.047276602	1.5042267	1.004159	-0.26395776	1.5584281	0.98228742	0.20938865	1.6163307	0.79056934	-0.31705657	1.7884017	0.89504667	0.17007259
423	1.688	1.7955964	0.033967397	-0.11102649	1.3214599	0.083730374	0.1021036	1.6730463	0.066779866	-0.14217652	1.2944255	0.22447065	0.10416899	1.6714208	0.080111904	-0.054166903	1.3369162	0.20378147	0.028825646	1.5931911	0.040936866	-0.10351287	1.2619428	0.25177824	0.036955338	1.7599721	0.43227491	-0.14485919	1.6229657	0.40664056	0.15392033	1.7180174	0.43024946	-0.029488307	1.6339897	0.38037659	0.020248771	1.630254	0.8103899	-0.20688211	1.5387582	0.76123073	0.12466309	1.6849447	0.85264873	-0.14695641	1.6467251	0.82699955	0.098176175	1.4733019	0.90445092	-0.044356262	1.5909911	1.3162789	-0.22535425	1.574569	1.3121381	0.13978585	1.4957421	1.3508727	-0.047561008	1.512058	1.0052335	-0.26435558	1.559797	0.98407148	0.20793886	1.6282632	0.7932912	-0.31614611	1.7887694	0.8916781	0.17161999
424	1.692	1.7956263	0.033966083	-0.11098686	1.3374018	0.084051161	0.10376395	1.6730957	0.066949589	-0.1420887	1.3073318	0.22384649	0.10378262	1.6714828	0.080308285	-0.054129399	1.3503638	0.20315546	0.028673384	1.5931844	0.041284977	-0.10324442	1.2745915	0.24992207	0.035716686	1.7611833	0.43232972	-0.1444809	1.6335294	0.40970838	0.15389655	1.7184004	0.43053114	-0.029257506	1.6456028	0.38311998	0.020318422	1.6347988	0.81143873	-0.20699495	1.5437751	0.76349376	0.12479325	1.6899326	0.853983	-0.14707044	1.6524968	0.82919126	0.098023257	1.478803	0.90654824	-0.044503748	1.5969918	1.3183115	-0.22525416	1.5792453	1.314041	0.13992864	1.5012347	1.3526899	-0.047794122	1.5199075	1.0063932	-0.26477994	1.561623	0.98588215	0.20688902	1.6401998	0.79620397	-0.31518711	1.7889473	0.88844196	0.17322392
425	1.696	1.7956528	0.033969234	-0.11095243	1.3534577	0.084228752	0.10538443	1.6731351	0.067149142	-0.1420128	1.320332	0.22296297	0.1034331	1.6715475	0.080522291	-0.054102287	1.3639318	0.20233107	0.028591795	1.5932029	0.04158329	-0.10307618	1.2873537	0.24774325	0.034523116	1.7622408	0.43243213	-0.14411555	1.6440044	0.41287633	0.15381535	1.7189661	0.43085365	-0.028993499	1.6571999	0.38596297	0.020319076	1.6392957	0.81250636	-0.20707265	1.5489669	0.76579533	0.12498307	1.6950143	0.85536479	-0.14724013	1.6588835	0.83143832	0.097677202	1.4845228	0.90864032	-0.044635456	1.6029964	1.3204258	-0.22514219	1.5839555	1.3159708	0.14007185	1.5067156	1.3545655	-0.047969497	1.5277787	1.007629	-0.26525652	1.5639016	0.98775311	0.20595874	1.6521496	0.79930528	-0.31416886	1.7889432	0.88534009	0.17487981
426	1.7	1.7956807	0.033976873	-0.11092357	1.3696733	0.084261351	0.10694017	1.6731809	0.067381347	-0.14195384	1.3333773	0.22182781	0.10312166	1.6715905	0.080754436	-0.054088914	1.3776017	0.20132797	0.028567017	1.5932609	0.041862751	-0.10298787	1.3002138	0.24526198	0.033369519	1.7631677	0.43257599	-0.14376801	1.6543993	0.41611087	0.15368344	1.7196077	0.43119894	-0.028719705	1.6688052	0.38893295	0.020276648	1.6438452	0.81360032	-0.20711332	1.5543411	0.76812403	0.12521647	1.7001236	0.8567922	-0.14744631	1.6651696	0.833827	0.097321555	1.4903548	0.91071695	-0.044736647	1.6090197	1.3226172	-0.22503808	1.5887316	1.3179198	0.14021342	1.5121785	1.3564895	-0.048096705	1.5356509	1.0089449	-0.26576315	1.566322	0.98973254	0.20506044	1.6641304	0.802587	-0.31308244	1.7887708	0.88237332	0.17658251
427	1.704	1.7957134	0.033986637	-0.11090061	1.3860602	0.084157662	0.10839829	1.6732421	0.067636529	-0.14191079	1.3463738	0.22046086	0.1028637	1.6715281	0.080986744	-0.054088385	1.3913485	0.20016746	0.028586519	1.5933441	0.042168037	-0.10292536	1.3131389	0.24253144	0.032271237	1.7639832	0.43275526	-0.14344622	1.664704	0.419392	0.15351156	1.7202974	0.43155376	-0.028438096	1.6803153	0.39203911	0.020185757	1.6485608	0.81472289	-0.20711501	1.5598934	0.77047464	0.12548725	1.7051738	0.85825819	-0.14765895	1.6706031	0.83631155	0.097164498	1.4962071	0.9127877	-0.044814564	1.6150262	1.324871	-0.2249255	1.5935939	1.3198739	0.14034973	1.5176196	1.3584432	-0.048196511	1.5435118	1.0103488	-0.26627113	1.5685371	0.99185301	0.20422277	1.676172	0.80603192	-0.31192734	1.7884411	0.87953981	0.17832846
428	1.708	1.7957542	0.033994359	-0.11088509	1.4025981	0.083930409	0.10972055	1.6733202	0.067903821	-0.14187842	1.359263	0.21888668	0.10267479	1.6712886	0.081198912	-0.054095222	1.4051473	0.19887032	0.028631791	1.5934313	0.042529914	-0.10284685	1.3260544	0.23958338	0.03130992	1.7647061	0.4329657	-0.14316083	1.6749049	0.42270581	0.15331186	1.721058	0.43190757	-0.028140792	1.6915244	0.39526681	0.020012052	1.6534919	0.81587238	-0.20707815	1.5656125	0.77284368	0.12579382	1.710137	0.8597494	-0.14785803	1.6750136	0.83877355	0.097265243	1.5020561	0.91483944	-0.044900753	1.6209579	1.3271706	-0.22476716	1.5985422	1.3218192	0.14048199	1.5230446	1.3604067	-0.048281883	1.5513506	1.0118351	-0.26677616	1.5704051	0.99411056	0.20348053	1.6883544	0.80961223	-0.3107067	1.787957	0.87683902	0.18011247
429	1.712	1.7958062	0.033997632	-0.11088055	1.4192956	0.08359353	0.11087499	1.6734109	0.068182288	-0.14185187	1.3721381	0.21710696	0.10255286	1.6709556	0.081413023	-0.054102135	1.418982	0.19744699	0.028681009	1.5935119	0.042952688	-0.10273576	1.3389014	0.23640365	0.030575185	1.7653667	0.43321102	-0.14291502	1.6849989	0.42603941	0.15309746	1.721834	0.43225145	-0.027841169	1.7022941	0.39859967	0.019740536	1.6585422	0.81705248	-0.20700762	1.5714863	0.77522728	0.12613522	1.7150342	0.86125542	-0.14804019	1.6790716	0.8411884	0.097446829	1.5078787	0.91683986	-0.045008453	1.6267915	1.3295005	-0.22454977	1.6035541	1.3237465	0.14061563	1.5284594	1.3623657	-0.048348194	1.5591459	1.0133837	-0.26728015	1.572059	0.99646501	0.20282463	1.7007595	0.81330399	-0.30941986	1.7873199	0.87427279	0.18193106
430	1.716	1.7958695	0.033997096	-0.11089112	1.4362203	0.083165827	0.11184423	1.6735043	0.068482482	-0.14182794	1.385193	0.21509631	0.10248	1.6707346	0.081688689	-0.054105529	1.432845	0.19589753	0.028721381	1.5935997	0.043408996	-0.10260311	1.3516914	0.2329696	0.030090114	1.7659895	0.43349763	-0.1427073	1.6949871	0.42937463	0.15287837	1.7225076	0.4325825	-0.027568236	1.7126753	0.40203797	0.019398446	1.6635376	0.81827593	-0.20690774	1.5775037	0.77762099	0.12650986	1.7198924	0.86278021	-0.14821301	1.6835487	0.84361909	0.097496146	1.513553	0.91877042	-0.045160573	1.632549	1.3318457	-0.22428985	1.6085939	1.3256505	0.14075572	1.5338593	1.3643082	-0.048384404	1.5668698	1.0149783	-0.26775788	1.5737793	0.99886206	0.2022147	1.7132694	0.81711375	-0.30807803	1.7865382	0.87184246	0.18378213
431	1.72	1.7959422	0.033994709	-0.11091908	1.4534255	0.082658885	0.11263002	1.6735934	0.068820435	-0.14180301	1.3985302	0.21283419	0.10244557	1.6707365	0.082058821	-0.054108721	1.4467341	0.1942229	0.02875959	1.5937249	0.043860179	-0.102471	1.3644779	0.22928781	0.029820882	1.7665735	0.43382332	-0.14254293	1.704858	0.43268665	0.15265362	1.7230233	0.43290823	-0.027336312	1.7228632	0.40559628	0.019027027	1.6684022	0.81955079	-0.2067843	1.5836554	0.78002008	0.12691563	1.7247296	0.86433654	-0.14838329	1.6886079	0.84610809	0.097364973	1.5188299	0.92064067	-0.045452121	1.6382624	1.3341959	-0.224006	1.6136329	1.3275293	0.14090303	1.5392322	1.3662211	-0.048388345	1.5745062	1.0166154	-0.26817521	1.5757782	1.0012667	0.20161569	1.7255785	0.82107011	-0.3067103	1.7856249	0.86954852	0.18566059
432	1.724	1.796024	0.033991854	-0.11096295	1.4708531	0.082051961	0.1132603	1.6736826	0.069205227	-0.14177557	1.4121026	0.21032361	0.10245506	1.670902	0.082506319	-0.054118178	1.4606523	0.19242984	0.028814732	1.593896	0.044289978	-0.10234216	1.3773105	0.22539032	0.029721603	1.7671137	0.43417847	-0.1424293	1.7145821	0.43595509	0.15241086	1.7234147	0.43324583	-0.027141283	1.7330614	0.4092948	0.018652238	1.6731812	0.82086935	-0.20664525	1.5899322	0.78241975	0.12735019	1.7295503	0.86593089	-0.14854958	1.6940123	0.8486535	0.097123707	1.5234955	0.92246941	-0.045983931	1.6439493	1.3365473	-0.22370394	1.6186615	1.3293858	0.14105472	1.5445691	1.3680947	-0.048372826	1.5820737	1.0182942	-0.26855149	1.5780555	1.0036771	0.20102293	1.7375112	0.82518328	-0.3053357	1.7845962	0.86739129	0.18756458
433	1.728	1.7961194	0.033989092	-0.11101696	1.4883926	0.081310578	0.11377936	1.6737886	0.069630209	-0.14174997	1.4258236	0.20757806	0.10252359	1.6711085	0.082999043	-0.054138184	1.4746065	0.1905221	0.028900509	1.5940874	0.044718801	-0.10219625	1.3902257	0.22130744	0.029762149	1.7676236	0.43455574	-0.1423648	1.7241343	0.43917087	0.15213668	1.723729	0.43361603	-0.026979147	1.7432927	0.41313826	0.018286202	1.6779117	0.82221415	-0.20649856	1.5963252	0.78481529	0.12781122	1.734347	0.86755845	-0.1487064	1.699542	0.85123789	0.096842631	1.5276936	0.92425996	-0.046683167	1.6496141	1.3388987	-0.22338307	1.623683	1.3312271	0.14120841	1.5498681	1.3699371	-0.04836182	1.5896212	1.0200072	-0.26896252	1.580418	1.0061109	0.20046007	1.7491474	0.8294348	-0.30394952	1.7834702	0.86537134	0.1894971
434	1.732	1.7962353	0.033987334	-0.11107406	1.5060614	0.080445823	0.11422289	1.6739306	0.070082684	-0.14173216	1.4396808	0.20460095	0.10268129	1.6712435	0.083511073	-0.054169987	1.4886032	0.18849473	0.029018006	1.5942775	0.045198871	-0.10202712	1.4032497	0.21705399	0.029932856	1.7681238	0.43495317	-0.1423399	1.7335236	0.44232713	0.15182623	1.7239959	0.43403621	-0.026851813	1.7532356	0.41708554	0.017939721	1.6825484	0.82356649	-0.20635536	1.6028254	0.78720199	0.12829644	1.7391093	0.86920998	-0.14885114	1.7050684	0.85384549	0.096544101	1.5319084	0.92600847	-0.047307389	1.6552562	1.3412454	-0.22304526	1.6287019	1.3330564	0.14136132	1.555132	1.3717795	-0.048372771	1.5971928	1.0217465	-0.26946508	1.5826583	1.0085818	0.19994894	1.7606335	0.83380033	-0.30254045	1.7822609	0.86348937	0.19145656
435	1.736	1.7963734	0.033987835	-0.11112987	1.5240001	0.079517164	0.11461057	1.6741182	0.070563952	-0.14172154	1.4537856	0.20137641	0.10298914	1.6712381	0.084024176	-0.054211571	1.5026525	0.18634243	0.029158545	1.5944832	0.045785387	-0.10187145	1.4164018	0.21263972	0.030229014	1.7686284	0.43537132	-0.14234454	1.7427761	0.44541213	0.15148095	1.7242463	0.43451775	-0.026760543	1.7624566	0.4210588	0.017617591	1.686992	0.82490977	-0.20623009	1.6094236	0.78957519	0.1288036	1.7438246	0.87087964	-0.14898662	1.7105024	0.85646624	0.096215527	1.5364682	0.92772976	-0.047666427	1.6608735	1.3435793	-0.22269513	1.6337042	1.3348687	0.14150601	1.5603656	1.3736509	-0.04840208	1.6048175	1.0235121	-0.27005286	1.5847093	1.0110876	0.19948534	1.7720134	0.83826822	-0.30110573	1.7809783	0.8617447	0.1934371
436	1.74	1.7965257	0.033990977	-0.11118418	1.5422166	0.078557702	0.11495228	1.6743452	0.071091345	-0.14171019	1.4682996	0.19788647	0.10351887	1.6711316	0.084543612	-0.054255823	1.5167804	0.18407415	0.029302348	1.5947349	0.046490101	-0.10177603	1.4296887	0.20807384	0.030642648	1.7691466	0.43581201	-0.14237226	1.7518938	0.44841551	0.15109984	1.7245086	0.43507092	-0.026702573	1.7709119	0.42499315	0.01730344	1.6912257	0.82623567	-0.20612648	1.6161106	0.79193021	0.12933047	1.7484866	0.87256406	-0.14911878	1.7158117	0.85909018	0.095846042	1.5412751	0.92945653	-0.04770452	1.6664622	1.3458916	-0.22233851	1.638618	1.3366605	0.14163169	1.5655766	1.3755374	-0.048432688	1.6125314	1.0253065	-0.2706806	1.5866299	1.0136089	0.1990499	1.7831968	0.84284474	-0.29965279	1.7796341	0.8601337	0.1954358
